<?xml version="1.0"?><svg width="640" height="480" xmlns="http://www.w3.org/2000/svg">
 <title>wave pattern</title>
 <metadata id="metadata18081">image/svg+xmlPublic Domainclker.comMohamed Ibrahimmap symbolsmap symbols</metadata>
 <g>
  <title>Layer 1</title>
  <path d="m251.639999,251.600006c-6.837006,6.626007 -16.061996,9.223999 -26.291992,9.223999c-12.987015,0 -24.808014,-5.30101 -31.593002,-15.320007c-6.73201,10.231003 -18.606003,15.320007 -31.753006,15.320007c-12.985992,0 -24.701004,-5.406998 -31.485992,-15.42601c-6.733009,10.337006 -18.606003,15.42601 -31.911606,15.42601c-9.594597,0 -18.394104,-2.174011 -25.0205,-8.057999l-5.035797,-36.046005c6.891495,9.117996 17.811096,15.000992 30.056297,15.000992c13.305603,0 25.178596,-6.518997 31.911606,-16.855988c6.784988,10.018997 18.5,16.855988 31.485992,16.855988c13.147003,0 25.020996,-6.518997 31.753006,-16.75c6.784988,10.019012 18.605988,16.75 31.593002,16.75c13.251999,0 24.966995,-6.83699 31.645981,-17.173996l-5.353989,37.053009z" fill-rule="nonzero" fill="#0000ff" id="path6712"/>
  <path d="m378.640015,252.600006c-6.837006,6.626007 -16.062012,9.223999 -26.292023,9.223999c-12.987,0 -24.807983,-5.300995 -31.592987,-15.320007c-6.731995,10.230988 -18.606018,15.320007 -31.752991,15.320007c-12.986023,0 -24.701019,-5.407013 -31.486023,-15.42601c-6.732986,10.33699 -18.605988,15.42601 -31.911987,15.42601c-9.594009,0 -18.393997,-2.174011 -25.020004,-8.057999l-5.035995,-36.046005c6.891998,9.117996 17.810989,15.000992 30.056,15.000992c13.306,0 25.179001,-6.518997 31.911987,-16.855988c6.785004,10.018997 18.5,16.855988 31.486023,16.855988c13.146973,0 25.020996,-6.518997 31.752991,-16.75c6.785004,10.019012 18.605988,16.75 31.592987,16.75c13.252014,0 24.96701,-6.83699 31.645996,-17.173996l-5.353973,37.053009z" fill-rule="nonzero" fill="#0000ff" id="svg_1"/>
  <ellipse ry="11" cy="244" cx="257" fill="#0000ff" id="svg_3"/>
  <ellipse ry="5" cy="245" cx="258" fill="#0000ff" id="svg_4"/>
  <path d="m505.640015,251.600006c-6.837006,6.626007 -16.062012,9.223999 -26.292023,9.223999c-12.987,0 -24.807983,-5.30101 -31.592987,-15.320007c-6.731995,10.231003 -18.606018,15.320007 -31.752991,15.320007c-12.986023,0 -24.701019,-5.406998 -31.486023,-15.42601c-6.733002,10.337006 -18.605988,15.42601 -31.911987,15.42601c-9.593994,0 -18.394012,-2.174011 -25.019989,-8.057999l-5.036011,-36.046005c6.891998,9.117996 17.811005,15.000992 30.056,15.000992c13.306,0 25.178986,-6.518997 31.911987,-16.855988c6.785004,10.018997 18.5,16.855988 31.486023,16.855988c13.146973,0 25.020996,-6.518997 31.752991,-16.75c6.785004,10.019012 18.605988,16.75 31.592987,16.75c13.252014,0 24.96701,-6.83699 31.645996,-17.173996l-5.353973,37.053009z" fill-rule="nonzero" fill="#0000ff" id="svg_5"/>
 </g>
</svg>