<?xml version="1.0" encoding="UTF-8" standalone="no"?>
<!-- Created with Inkscape (http://www.inkscape.org/) -->
<svg
   xmlns:dc="http://purl.org/dc/elements/1.1/"
   xmlns:cc="http://web.resource.org/cc/"
   xmlns:rdf="http://www.w3.org/1999/02/22-rdf-syntax-ns#"
   xmlns:svg="http://www.w3.org/2000/svg"
   xmlns="http://www.w3.org/2000/svg"
   xmlns:sodipodi="http://sodipodi.sourceforge.net/DTD/sodipodi-0.dtd"
   xmlns:inkscape="http://www.inkscape.org/namespaces/inkscape"
   version="1.0"
   width="500"
   height="500"
   id="svg1489"
   sodipodi:version="0.32"
   inkscape:version="0.44.1"
   sodipodi:docname="MN-100.svg"
   sodipodi:docbase="C:\Documents and Settings\onsons\My Documents\Wikipedia\Minnesota">
  <metadata
     id="metadata8">
    <rdf:RDF>
      <cc:Work
         rdf:about="">
        <dc:format>image/svg+xml</dc:format>
        <dc:type
           rdf:resource="http://purl.org/dc/dcmitype/StillImage" />
        <dc:title>Minnesota State Route marker</dc:title>
        <dc:date>2006-09-29</dc:date>
        <dc:creator>
          <cc:Agent>
            <dc:title>Philipp Moore</dc:title>
          </cc:Agent>
        </dc:creator>
        <dc:rights>
          <cc:Agent>
            <dc:title>PublicDomain</dc:title>
          </cc:Agent>
        </dc:rights>
        <dc:subject>
          <rdf:Bag />
        </dc:subject>
        <cc:license
           rdf:resource="http://web.resource.org/cc/PublicDomain" />
      </cc:Work>
      <cc:License
         rdf:about="http://web.resource.org/cc/PublicDomain">
        <cc:permits
           rdf:resource="http://web.resource.org/cc/Reproduction" />
        <cc:permits
           rdf:resource="http://web.resource.org/cc/Distribution" />
        <cc:permits
           rdf:resource="http://web.resource.org/cc/DerivativeWorks" />
      </cc:License>
    </rdf:RDF>
  </metadata>
  <sodipodi:namedview
     inkscape:window-height="573"
     inkscape:window-width="853"
     inkscape:pageshadow="2"
     inkscape:pageopacity="0.0"
     guidetolerance="10.0"
     gridtolerance="10.0"
     objecttolerance="10.0"
     borderopacity="1.0"
     bordercolor="#666666"
     pagecolor="#ffffff"
     id="base"
     inkscape:zoom="0.64"
     inkscape:cx="-66.71752"
     inkscape:cy="224.15924"
     inkscape:window-x="1280"
     inkscape:window-y="434"
     inkscape:current-layer="svg1489" />
  <defs
     id="defs1492" />
  <g
     id="g1874">
    <rect
       id="yellow_ground"
       style="color:black;fill:#f7d117;fill-opacity:1;fill-rule:nonzero;stroke:none;stroke-width:5.17299986;stroke-linecap:round;stroke-linejoin:miter;marker:none;marker-start:none;marker-mid:none;marker-end:none;stroke-miterlimit:4;stroke-dasharray:none;stroke-dashoffset:0;stroke-opacity:1;visibility:visible;display:inline;overflow:visible"
       y="0"
       x="0"
       ry="29.017742"
       rx="29.017742"
       height="500"
       width="500" />
    <path
       id="blue_heart"
       d="M 12.03125,168.9375 C 12.182584,271.64333 11.119782,374.4572 13.03125,477.09375 C 16.945083,487.10151 29.465394,490.04745 39.031247,487.99772 C 185.0317,487.40876 331.11464,489.2117 477.0625,487.03125 C 487.05965,482.99003 490.06232,470.62646 487.99701,460.96875 C 487.69909,350.31264 488.30591,239.65608 487.96875,129 C 329.33333,129 170.69792,129 12.0625,129 C 12.052083,142.3125 12.041667,155.625 12.03125,168.9375 z "
       style="color:black;fill:#003882;fill-opacity:1;fill-rule:nonzero;stroke:none;stroke-width:5.17299986;stroke-linecap:round;stroke-linejoin:miter;marker:none;marker-start:none;marker-mid:none;marker-end:none;stroke-miterlimit:4;stroke-dasharray:none;stroke-dashoffset:0;stroke-opacity:1;visibility:visible;display:inline;overflow:visible" />
    <path
       style="fill:#003882;fill-opacity:1"
       d="M 18.455766,75.203181 L 18.10633,68.738749 L 16.708617,63.147892 L 15.310904,52.839746 L 14.961468,45.327028 L 13.563756,42.70631 L 12.340755,38.862597 L 12.340755,31.000448 L 12.864894,28.030301 L 11.473331,23.864115 L 34.500648,23.891069 L 34.747737,17.590446 L 35.241896,17.466905 L 36.971475,17.83753 L 38.453974,18.455238 L 39.071688,22.655652 L 40.183562,27.350233 L 41.418981,28.585649 L 45.125217,28.585649 L 45.372307,29.697525 L 50.190428,29.944607 L 50.190428,31.550649 L 53.896675,31.550649 L 54.143765,30.562316 L 55.008549,29.697525 L 56.738137,29.203358 L 57.726476,29.944607 L 59.950214,29.944607 L 62.915221,31.921273 L 66.992083,33.774398 L 68.845216,34.145022 L 69.21584,33.403772 L 70.327715,33.033147 L 70.698339,35.256896 L 72.675007,36.245229 L 73.045632,35.874604 L 74.033961,35.998145 L 74.033961,37.604188 L 76.010629,38.345438 L 78.357912,38.345438 L 79.593341,37.727729 L 82.064168,35.256896 L 84.040827,34.886272 L 84.658541,36.245229 L 85.029156,37.233563 L 85.770415,37.233563 L 86.511654,36.615855 L 93.30644,36.368771 L 94.665409,38.716062 L 95.159574,38.716062 L 95.704926,37.887452 L 99.097914,37.604188 L 98.630152,39.34616 L 95.620159,40.750098 L 88.5545,43.85363 L 84.905621,45.387309 L 82.558328,47.363974 L 80.705205,50.081888 L 78.975627,53.046885 L 77.616673,53.664594 L 74.157506,57.494384 L 73.169167,57.617924 L 70.233367,59.860025 L 68.081037,62.275606 L 67.906325,64.545608 L 68.079762,70.489735 L 66.859313,71.712738 L 62.840887,74.856307 L 61.440613,79.22545 L 63.365025,82.013205 L 63.715726,83.938905 L 62.838316,86.211469 L 62.664879,89.008174 L 63.014324,94.421763 L 65.632476,97.560235 L 67.906325,97.560235 L 69.82434,99.31248 L 72.271626,100.35566 L 75.068337,104.20322 L 80.484476,108.04181 L 81.883473,109.61807 L 82.062023,113.82274 L 66.328777,114.34688 L 20.286434,114.69759 L 20.028191,87.43319 L 19.678765,85.161907 L 16.533904,82.541189 L 15.66033,81.143472 L 15.66033,79.92047 L 17.232755,78.697475 L 18.281053,77.649186 L 18.455766,75.203181 z "
       id="blue_state_gylph" />
    <path
       id="blue_state_name"
       d="M 143.11665,98.352837 L 143.11665,63.710717 L 131.69298,98.352837 L 120.17654,63.710717 L 120.17654,98.352837 L 111.33114,98.352837 L 111.33114,36.623453 L 120.17654,36.623453 L 131.69298,71.265573 L 143.11665,36.623453 L 152.05482,36.623453 L 152.05482,98.352837 L 143.11665,98.352837 z M 165.49443,98.352837 L 165.49443,36.623453 L 174.15425,36.623453 L 174.15425,98.352837 L 165.49443,98.352837 z M 215.72423,98.352837 L 196.65293,56.985293 L 196.65293,98.352837 L 187.80754,98.352837 L 187.80754,36.623453 L 196.65293,36.623453 L 213.60426,73.661083 L 213.60426,36.623453 L 222.44966,36.623453 L 222.44966,98.352837 L 215.72423,98.352837 z M 263.7694,98.352837 L 244.6981,56.985293 L 244.6981,98.352837 L 235.85271,98.352837 L 235.85271,36.623453 L 244.6981,36.623453 L 261.64943,73.661083 L 261.64943,36.623453 L 270.49482,36.623453 L 270.49482,98.352837 L 263.7694,98.352837 z M 283.89787,98.352837 L 283.89787,36.623453 L 312.91954,36.623453 L 312.91954,45.286092 L 292.74327,45.286092 L 292.74327,60.854099 L 305.55025,60.854099 L 305.55025,69.33117 L 292.74327,69.33117 L 292.74327,89.69301 L 315.31505,89.69301 L 315.31505,98.352837 L 283.89787,98.352837 z M 357.06216,81.491479 C 357.06213,84.010716 356.61695,86.3603 355.72664,88.540241 C 354.83625,90.7202 353.60804,92.608678 352.042,94.205679 C 350.47588,95.802689 348.66379,97.077294 346.6057,98.029499 C 344.54756,98.981704 342.32075,99.457807 339.92527,99.457808 C 337.22233,99.457807 334.79637,98.935781 332.64736,97.891729 C 330.49832,96.847678 328.68669,95.435303 327.21247,93.654599 C 325.73823,91.873905 324.60187,89.816261 323.80337,87.481661 C 323.00486,85.147082 322.60561,82.721115 322.60561,80.203751 L 331.26544,80.203751 C 331.26543,81.49337 331.43413,82.767507 331.77153,84.026165 C 332.10892,85.284852 332.63094,86.421219 333.33761,87.435269 C 334.04425,88.449341 334.93507,89.263308 336.01007,89.877172 C 337.08503,90.491052 338.3901,90.797989 339.92527,90.797981 C 341.09301,90.797989 342.21438,90.55244 343.28938,90.061333 C 344.36434,89.570244 345.28562,88.894516 346.05322,88.034147 C 346.82077,87.173798 347.43464,86.17567 347.89484,85.039759 C 348.35498,83.903874 348.58506,82.721115 348.58509,81.491479 C 348.58506,79.710797 348.21674,78.129724 347.48012,76.748255 C 346.74345,75.36683 345.45385,73.96945 343.61132,72.556112 C 343.30389,72.248733 343.18111,72.079567 343.24299,72.048612 C 343.30482,72.017711 343.12066,71.849013 342.69051,71.542519 C 342.2603,71.236078 341.35402,70.637201 339.97166,69.745886 C 338.58925,68.854628 336.33198,67.334942 333.19984,65.186824 C 330.68248,63.46614 328.79401,61.453951 327.5344,59.15025 C 326.27479,56.846628 325.64498,54.31335 325.64499,51.550408 C 325.64498,49.33864 326.04423,47.265532 326.84274,45.331078 C 327.64124,43.39673 328.76214,41.692414 330.20545,40.218125 C 331.64875,38.743952 333.3226,37.592121 335.22703,36.762629 C 337.13142,35.93326 339.1886,35.518545 341.39856,35.518482 C 343.61035,35.518545 345.653,35.917796 347.52651,36.716237 C 349.39997,37.514802 351.02743,38.620709 352.40891,40.033963 C 353.79033,41.447334 354.89577,43.136654 355.72523,45.10193 C 356.55463,47.067312 357.00027,49.216803 357.06216,51.550408 L 348.58509,51.550408 C 348.46323,49.400496 347.72658,47.680716 346.37515,46.391063 C 345.02367,45.101515 343.36481,44.456714 341.39856,44.456661 C 339.37229,44.456714 337.65298,45.132443 336.24062,46.483847 C 334.82823,47.835356 334.12204,49.524208 334.12206,51.550408 C 334.12204,53.085605 334.52129,54.375205 335.31981,55.419214 C 336.1183,56.463309 337.65345,57.630135 339.92527,58.919696 C 345.88403,62.359295 350.22987,65.860243 352.9628,69.422548 C 355.69567,72.984911 357.06213,77.007884 357.06216,81.491479 L 357.06216,81.491479 z M 402.49532,67.396767 C 402.49527,72.125958 402.23426,76.148931 401.71228,79.465698 C 401.19021,82.782502 400.28346,85.915126 398.99202,88.863578 C 397.45683,92.548697 395.5379,95.235677 393.2352,96.924527 C 390.93245,98.613381 388.03038,99.457807 384.52899,99.457808 C 380.84385,99.457807 377.84947,98.613381 375.54582,96.924527 C 373.24214,95.235677 371.32274,92.548697 369.7876,88.863578 C 368.49799,85.85327 367.59218,82.705182 367.07016,79.419306 C 366.54812,76.133467 366.28711,72.125958 366.28712,67.396767 C 366.28711,62.729493 366.54812,58.721984 367.07016,55.374228 C 367.59218,52.026558 368.49799,48.87847 369.7876,45.929956 C 371.3846,42.244899 373.33493,39.588378 375.63861,37.960385 C 377.94225,36.332512 380.90571,35.518545 384.52899,35.518482 C 388.09036,35.518545 391.00742,36.332512 393.28019,37.960385 C 395.55289,39.588378 397.45683,42.306755 398.99202,46.115523 C 399.60679,47.650725 400.14475,49.185875 400.6059,50.720977 C 401.06697,52.256174 401.43576,53.868175 401.71228,55.556984 C 401.98871,57.245879 402.18834,59.057974 402.31115,60.993275 C 402.43389,62.92865 402.49527,65.063146 402.49532,67.396767 L 402.49532,67.396767 z M 394.01824,67.396767 C 394.01821,65.676081 393.97229,64.109535 393.88047,62.697124 C 393.78859,61.284784 393.66582,59.97972 393.51215,58.781926 C 393.35842,57.584212 393.15879,56.432849 392.91327,55.327836 C 392.66769,54.222909 392.39121,53.11747 392.08384,52.011516 C 391.28531,49.246794 390.28718,47.250068 389.08945,46.021334 C 387.89167,44.792704 386.37152,44.178363 384.52899,44.178309 C 380.72014,44.178363 378.11001,46.727574 376.69859,51.825948 C 375.96005,54.159647 375.45302,56.508763 375.1775,58.873304 C 374.90194,61.237924 374.76417,64.139994 374.76419,67.579523 C 374.76417,69.238415 374.8101,70.759038 374.90196,72.141396 C 374.99379,73.523807 375.11656,74.813876 375.27028,76.011608 C 375.42397,77.209384 375.62359,78.391674 375.86916,79.558482 C 376.11469,80.725327 376.39117,81.922612 376.69859,83.150342 C 378.11001,88.248778 380.72014,90.797989 384.52899,90.797981 C 386.37152,90.797989 387.89167,90.183648 389.08945,88.954956 C 390.28718,87.726284 391.28531,85.791414 392.08384,83.150342 C 392.4512,81.922612 392.75813,80.740791 393.00465,79.604874 C 393.2511,78.468994 393.45073,77.286704 393.60353,76.058 C 393.75626,74.82934 393.86357,73.523807 393.92546,72.141396 C 393.98728,70.759038 394.01821,69.177496 394.01824,67.396767 L 394.01824,67.396767 z M 430.28268,44.824984 L 430.28268,98.352837 L 421.34731,98.352837 L 421.34731,44.824984 L 410.10641,44.824984 L 410.10641,36.623453 L 441.52358,36.623453 L 441.52358,44.824984 L 430.28268,44.824984 z M 475.78333,98.352837 L 471.45341,81.491479 L 458.18532,81.491479 L 454.13376,98.352837 L 445.19558,98.352837 L 460.58083,36.623453 L 469.24347,36.623453 L 484.62872,98.352837 L 475.78333,98.352837 z M 464.72799,55.05089 L 460.39807,72.831652 L 469.24347,72.831652 L 464.72799,55.05089 z "
       style="font-size:92.13156128px;font-style:normal;font-weight:normal;fill:#003882;fill-opacity:1;stroke:none;stroke-width:1px;stroke-linecap:butt;stroke-linejoin:miter;stroke-opacity:1;font-family:Roadgeek 2005 Series B" />
  </g>
  <path
     style="font-size:288.92715454px;font-style:normal;font-weight:normal;text-align:center;text-anchor:middle;fill:#eeeeec;fill-opacity:1;stroke:none;stroke-width:1px;stroke-linecap:butt;stroke-linejoin:miter;stroke-opacity:1;font-family:Roadgeek 2005 Series D"
     d="M 65.549704,405.59839 L 65.549704,248.71116 L 47.923807,248.71116 L 47.923807,224.15482 L 49.942982,224.15482 C 53.987185,224.155 58.031408,223.09545 62.075665,220.97616 C 66.119856,218.85724 69.491022,215.86963 72.189174,212.01332 L 96.745513,212.01332 L 96.745513,405.59839 L 65.549704,405.59839 z M 276.0112,309.09242 C 276.01105,324.50524 274.18145,339.24197 270.5224,353.30264 C 266.86305,367.36343 261.66228,378.72899 254.92008,387.39936 C 244.13339,401.8422 228.53256,409.06361 208.11755,409.06361 C 194.43882,409.06361 183.17025,406.27145 174.31181,400.68712 C 165.45326,395.10281 158.13486,386.33836 152.35659,374.39376 C 148.31233,366.11136 145.03815,356.04783 142.53405,344.20313 C 140.0299,332.35856 138.77784,320.655 138.77786,309.09242 C 138.77784,293.1096 140.65593,278.28029 144.41215,264.60444 C 148.16831,250.92888 153.32058,239.46779 159.86897,230.22116 C 165.64724,222.90293 172.53359,217.46116 180.52804,213.89582 C 188.52238,210.33087 198.1039,208.54829 209.27263,208.54809 C 221.59919,208.54829 232.09624,211.34192 240.76382,216.92899 C 249.43115,222.51644 256.84801,231.27941 263.01442,243.21794 C 267.0585,251.8885 270.23568,262.002 272.54598,273.55847 C 274.85597,285.1152 276.01105,296.95984 276.0112,309.09242 L 276.0112,309.09242 z M 245.38852,309.09242 C 245.38839,298.11785 244.42583,287.9588 242.50084,278.61522 C 240.57559,269.2719 237.68497,261.326 233.82897,254.7775 C 230.74866,249.76939 227.23494,246.11019 223.28782,243.79989 C 219.34048,241.4899 214.47771,240.14085 208.6995,239.75272 C 201.18703,239.3708 194.92671,241.10488 189.91853,244.95496 C 184.9102,248.80536 180.76899,255.06568 177.49487,263.73593 C 174.99069,269.51438 173.11259,276.49625 171.86058,284.68156 C 170.60846,292.86712 169.98243,301.00407 169.98248,309.09242 C 169.98243,319.49698 170.94499,329.51496 172.87017,339.14638 C 174.79524,348.77793 177.68292,356.67386 181.53322,362.83421 C 184.61923,367.8425 188.2799,371.59869 192.51524,374.10279 C 196.75043,376.60695 201.9512,377.85901 208.11755,377.85898 C 215.24188,377.85901 221.1642,375.93389 225.88453,372.08361 C 230.60464,368.23341 234.60184,361.97309 237.87613,353.30264 C 238.84004,350.79857 239.80407,347.7654 240.76823,344.20313 C 241.73213,340.64098 242.55068,336.88479 243.22386,332.93455 C 243.89679,328.98445 244.42583,324.98725 244.81098,320.94294 C 245.19588,316.8988 245.38839,312.94863 245.38852,309.09242 L 245.38852,309.09242 z M 452.07619,309.09242 C 452.07603,324.50524 450.24643,339.24197 446.58738,353.30264 C 442.92803,367.36343 437.72727,378.72899 430.98507,387.39936 C 420.19838,401.8422 404.59755,409.06361 384.18254,409.06361 C 370.5038,409.06361 359.23523,406.27145 350.37679,400.68712 C 341.51824,395.10281 334.19984,386.33836 328.42157,374.39376 C 324.37732,366.11136 321.10314,356.04783 318.59904,344.20313 C 316.09489,332.35856 314.84282,320.655 314.84284,309.09242 C 314.84282,293.1096 316.72092,278.28029 320.47714,264.60444 C 324.2333,250.92888 329.38557,239.46779 335.93396,230.22116 C 341.71222,222.90293 348.59857,217.46116 356.59303,213.89582 C 364.58736,210.33087 374.16888,208.54829 385.33761,208.54809 C 397.66418,208.54829 408.16123,211.34192 416.8288,216.92899 C 425.49614,222.51644 432.913,231.27941 439.0794,243.21794 C 443.12348,251.8885 446.30067,262.002 448.61097,273.55847 C 450.92096,285.1152 452.07603,296.95984 452.07619,309.09242 L 452.07619,309.09242 z M 421.45351,309.09242 C 421.45338,298.11785 420.49082,287.9588 418.56582,278.61522 C 416.64058,269.2719 413.74996,261.326 409.89395,254.7775 C 406.81364,249.76939 403.29993,246.11019 399.3528,243.79989 C 395.40547,241.4899 390.5427,240.14085 384.76449,239.75272 C 377.25202,239.3708 370.9917,241.10488 365.98351,244.95496 C 360.97519,248.80536 356.83398,255.06568 353.55986,263.73593 C 351.05567,269.51438 349.17758,276.49625 347.92557,284.68156 C 346.67345,292.86712 346.04742,301.00407 346.04747,309.09242 C 346.04742,319.49698 347.00998,329.51496 348.93515,339.14638 C 350.86022,348.77793 353.7479,356.67386 357.59821,362.83421 C 360.68422,367.8425 364.34489,371.59869 368.58023,374.10279 C 372.81542,376.60695 378.01619,377.85901 384.18254,377.85898 C 391.30687,377.85901 397.22919,375.93389 401.94951,372.08361 C 406.66963,368.23341 410.66683,361.97309 413.94112,353.30264 C 414.90503,350.79857 415.86906,347.7654 416.83321,344.20313 C 417.79712,340.64098 418.61567,336.88479 419.28885,332.93455 C 419.96178,328.98445 420.49082,324.98725 420.87597,320.94294 C 421.26087,316.8988 421.45338,312.94863 421.45351,309.09242 L 421.45351,309.09242 z "
     id="text1926" />
</svg>
